<svg width="24" height="22" viewBox="0 0 24 22" fill="none" xmlns="http://www.w3.org/2000/svg">
<path d="M8.7626 0.603165C6.36871 1.37469 4.30421 2.83907 2.87236 4.78121C1.44051 6.72335 0.716783 9.04089 0.807474 11.3934C0.898165 13.7459 1.7985 16.0094 3.37623 17.8514C4.95396 19.6934 7.12592 21.0168 9.5731 21.6273C11.5571 22.1029 13.6357 22.1238 15.6303 21.6881C17.4372 21.3111 19.1077 20.5045 20.4783 19.3475C21.9048 18.1065 22.9402 16.5277 23.4732 14.781C24.0526 12.8814 24.1556 10.8838 23.7745 8.94151H12.6335V13.235H19.0857C18.9567 13.9198 18.6804 14.5734 18.2732 15.1566C17.866 15.7399 17.3364 16.2408 16.7159 16.6295C15.9281 17.1137 15.0399 17.4395 14.1085 17.5859C13.1744 17.7473 12.2162 17.7473 11.2821 17.5859C10.3353 17.4041 9.43963 17.041 8.65217 16.5199C7.3871 15.688 6.4372 14.5061 5.93804 13.1429C5.43043 11.7541 5.43043 10.2485 5.93804 8.85978C6.29335 7.88634 6.88074 7.00002 7.65636 6.26698C8.54396 5.41271 9.66768 4.80207 10.9042 4.50206C12.1408 4.20206 13.4424 4.22427 14.6663 4.56627C15.6224 4.83893 16.4967 5.31531 17.2195 5.95745C17.947 5.28505 18.6732 4.61091 19.3982 3.93503C19.7726 3.57158 20.1807 3.22553 20.5494 2.85339C19.4461 1.89952 18.151 1.1573 16.7384 0.669246C14.166 -0.198516 11.3513 -0.221836 8.7626 0.603165Z" fill="white"/>
<path d="M8.76257 0.603034C11.351 -0.222529 14.1657 -0.199822 16.7384 0.667376C18.1512 1.15874 19.4457 1.90454 20.5475 2.86195C20.1731 3.23409 19.7782 3.58189 19.3963 3.94359C18.6701 4.61715 17.9444 5.28839 17.2194 5.95732C16.4966 5.31518 15.6223 4.8388 14.6663 4.56614C13.4428 4.22294 12.1412 4.19944 10.9043 4.49822C9.66744 4.797 8.54303 5.40652 7.65446 6.2599C6.87884 6.99293 6.29145 7.87925 5.93613 8.8527L2.05586 6.06165C3.44476 3.50287 5.84956 1.5456 8.76257 0.603034Z" fill="#E33629"/>
<path d="M1.02631 8.82673C1.23487 7.86646 1.58112 6.93651 2.05581 6.06177L5.93608 8.85977C5.42847 10.2485 5.42847 11.7541 5.93608 13.1428C4.64328 14.0703 3.34986 15.0024 2.05581 15.9391C0.86749 13.7416 0.505073 11.2378 1.02631 8.82673Z" fill="#F8BD00"/>
<path d="M12.6335 8.9397H23.7745C24.1556 10.882 24.0525 12.8796 23.4731 14.7792C22.9401 16.5259 21.9047 18.1047 20.4782 19.3457C19.226 18.4379 17.9681 17.5372 16.7159 16.6294C17.3367 16.2404 17.8666 15.7389 18.2738 15.155C18.681 14.5711 18.9571 13.9169 19.0856 13.2315H12.6335C12.6316 11.802 12.6335 10.3709 12.6335 8.9397Z" fill="#587DBD"/>
<path d="M2.05401 15.9391C3.34806 15.0116 4.64148 14.0795 5.93428 13.1428C6.43444 14.5065 7.38569 15.6885 8.65215 16.5199C9.44207 17.0386 10.3396 17.3987 11.2877 17.5772C12.2218 17.7386 13.18 17.7386 14.1141 17.5772C15.0455 17.4307 15.9337 17.1049 16.7215 16.6208C17.9738 17.5285 19.2316 18.4293 20.4839 19.337C19.1135 20.4947 17.443 21.3019 15.6359 21.6794C13.6413 22.115 11.5627 22.0942 9.5787 21.6186C8.00956 21.2293 6.54388 20.5432 5.27353 19.6031C3.92893 18.6113 2.83073 17.3615 2.05401 15.9391Z" fill="#319F43"/>
</svg>
